<svg width="55" height="55" viewBox="0 0 55 55" fill="none" xmlns="http://www.w3.org/2000/svg">
<path d="M27.5 55C42.6878 55 55 42.6878 55 27.5C55 12.3122 42.6878 0 27.5 0C12.3122 0 0 12.3122 0 27.5C0 42.6878 12.3122 55 27.5 55Z" fill="#16161A"/>
<path d="M36.3394 24.5536H30.4465V18.6607C30.4465 17.0343 29.1265 15.7143 27.5001 15.7143C25.8736 15.7143 24.5536 17.0343 24.5536 18.6607L24.6582 24.5536H18.6608C17.0344 24.5536 15.7144 25.8736 15.7144 27.5C15.7144 29.1264 17.0344 30.4464 18.6608 30.4464L24.6582 30.3418L24.5536 36.3393C24.5536 37.9657 25.8736 39.2857 27.5001 39.2857C29.1265 39.2857 30.4465 37.9657 30.4465 36.3393V30.3418L36.3394 30.4464C37.9658 30.4464 39.2858 29.1264 39.2858 27.5C39.2858 25.8736 37.9658 24.5536 36.3394 24.5536Z" fill="white"/>
</svg>
