<svg width="55" height="55" viewBox="0 0 55 55" fill="none" xmlns="http://www.w3.org/2000/svg">
<path d="M27.5 55C42.6878 55 55 42.6878 55 27.5C55 12.3122 42.6878 0 27.5 0C12.3122 0 0 12.3122 0 27.5C0 42.6878 12.3122 55 27.5 55Z" fill="#16161A"/>
<path d="M38.5838 25.9442C37.2689 24.6238 35.1374 24.6238 33.8225 25.9442L31.1523 28.6258V16.3815C31.1523 14.5132 29.6437 13 27.785 13C25.9246 13 24.4177 14.5132 24.4177 16.3815V28.6258L21.7475 25.9442C20.4326 24.6238 18.3011 24.6238 16.9862 25.9442C15.6713 27.2647 15.6713 29.4052 16.9862 30.7256L27.785 41.57L38.5838 30.7256C39.8987 29.4052 39.8987 27.2664 38.5838 25.9442Z" fill="white"/>
</svg>
