<svg width="55" height="55" viewBox="0 0 55 55" fill="none" xmlns="http://www.w3.org/2000/svg">
<g clip-path="url(#clip0)">
<path d="M27.5 0C12.3122 0 0 12.3122 0 27.5C0 42.6878 12.3122 55 27.5 55C42.6878 55 55 42.6878 55 27.5C55 12.3122 42.6878 0 27.5 0Z" fill="#FECBCA"/>
<path d="M16.4162 29.0558C17.7311 30.3762 19.8626 30.3762 21.1775 29.0558L23.8477 26.3742V38.6185C23.8477 40.4868 25.3563 42 27.215 42C29.0754 42 30.5823 40.4868 30.5823 38.6185V26.3742L33.2525 29.0558C34.5674 30.3762 36.6989 30.3762 38.0138 29.0558C39.3287 27.7353 39.3287 25.5948 38.0138 24.2744L27.215 13.43L16.4162 24.2744C15.1013 25.5948 15.1013 27.7336 16.4162 29.0558Z" fill="white"/>
</g>
<defs>
<clipPath id="clip0">
<rect width="55" height="55" fill="white"/>
</clipPath>
</defs>
</svg>
