<svg width="24" height="24" viewBox="0 0 24 24" fill="none" xmlns="http://www.w3.org/2000/svg">
<path d="M12 23C18.0751 23 23 18.0751 23 12C23 5.92487 18.0751 1 12 1C5.92487 1 1 5.92487 1 12C1 18.0751 5.92487 23 12 23Z" fill="#16161A" stroke="#16161A" stroke-width="2"/>
<path d="M16.972 6.25099C16.005 5.71299 14.787 6.06299 14.252 7.02799L10.539 13.71L8.41399 11.585C7.63299 10.804 6.36699 10.804 5.58599 11.585C4.80499 12.366 4.80499 13.632 5.58599 14.413L9.58599 18.413C9.96399 18.792 10.474 19 11 19C11.092 19 11.185 18.994 11.277 18.98C11.898 18.893 12.443 18.52 12.748 17.971L17.748 8.97099C18.285 8.00499 17.937 6.78799 16.972 6.25099Z" fill="white"/>
</svg>
