<svg width="30" height="30" viewBox="0 0 30 30" fill="none" xmlns="http://www.w3.org/2000/svg">
<path d="M15 30C23.2843 30 30 23.2843 30 15C30 6.71573 23.2843 0 15 0C6.71573 0 0 6.71573 0 15C0 23.2843 6.71573 30 15 30Z" fill="#FECBCA"/>
<path d="M12.7888 20.548L13.1598 22.03C13.2928 22.563 13.8518 23 14.4018 23H15.4018C15.9518 23 16.5108 22.563 16.6438 22.03L17.0148 20.548C17.1478 20.015 17.6898 19.702 18.2178 19.854L19.6848 20.274C20.2138 20.425 20.8728 20.16 21.1468 19.683L21.6468 18.816C21.9208 18.339 21.8238 17.637 21.4278 17.254L20.3298 16.193C19.9338 15.81 19.9338 15.185 20.3308 14.803L21.4268 13.742C21.8228 13.36 21.9208 12.658 21.6468 12.181L21.1458 11.314C20.8708 10.837 20.2128 10.572 19.6848 10.723L18.2178 11.143C17.6888 11.294 17.1478 10.982 17.0138 10.449L16.6438 8.969C16.5108 8.437 15.9518 8 15.4018 8H14.4018C13.8518 8 13.2928 8.437 13.1598 8.97L12.7898 10.45C12.6558 10.983 12.1148 11.296 11.5858 11.145L10.1188 10.725C9.58977 10.573 8.93077 10.839 8.65677 11.315L8.15677 12.182C7.88277 12.659 7.97977 13.361 8.37677 13.744L9.47277 14.803C9.86777 15.186 9.86777 15.811 9.47277 16.194L8.37477 17.255C7.97977 17.638 7.88077 18.34 8.15577 18.817L8.65677 19.684C8.93077 20.161 9.58977 20.426 10.1188 20.275L11.5858 19.855C12.1138 19.702 12.6558 20.015 12.7888 20.548ZM14.9018 13.5C16.0058 13.5 16.9018 14.395 16.9018 15.5C16.9018 16.605 16.0058 17.5 14.9018 17.5C13.7978 17.5 12.9018 16.604 12.9018 15.5C12.9018 14.395 13.7978 13.5 14.9018 13.5Z" fill="white"/>
</svg>
