<svg width="24" height="24" viewBox="0 0 24 24" fill="none" xmlns="http://www.w3.org/2000/svg">
<path d="M12 24C18.6274 24 24 18.6274 24 12C24 5.37258 18.6274 0 12 0C5.37258 0 0 5.37258 0 12C0 18.6274 5.37258 24 12 24Z" fill="#FECBCA"/>
<path d="M17.4137 6.58575C16.6337 5.80475 15.3658 5.80475 14.5858 6.58575L11.9998 9.17175L9.41375 6.58575C8.63375 5.80475 7.36575 5.80475 6.58575 6.58575C5.80475 7.36675 5.80475 8.63275 6.58575 9.41375L9.17075 11.9998L6.58575 14.5858C5.80475 15.3668 5.80475 16.6327 6.58575 17.4137C6.97575 17.8047 7.48775 17.9998 7.99975 17.9998C8.51175 17.9998 9.02375 17.8047 9.41375 17.4137L11.9998 14.8278L14.5858 17.4137C14.9758 17.8047 15.4878 17.9998 15.9998 17.9998C16.5118 17.9998 17.0237 17.8047 17.4137 17.4137C18.1947 16.6327 18.1947 15.3668 17.4137 14.5858L14.8288 11.9998L17.4137 9.41375C18.1947 8.63275 18.1947 7.36675 17.4137 6.58575Z" fill="white"/>
</svg>
