<svg width="40" height="40" viewBox="0 0 40 40" fill="none" xmlns="http://www.w3.org/2000/svg">
<path d="M20 40C31.0457 40 40 31.0457 40 20C40 8.9543 31.0457 0 20 0C8.9543 0 0 8.9543 0 20C0 31.0457 8.9543 40 20 40Z" fill="#BAB9FF"/>
<path d="M26.3333 29.7083H14.6666C12.2545 29.7083 10.2916 27.7454 10.2916 25.3333V13.6667C10.2916 11.2546 12.2545 9.29167 14.6666 9.29167H21.9583C22.7648 9.29167 23.4166 9.94501 23.4166 10.75C23.4166 11.555 22.7648 12.2083 21.9583 12.2083H14.6666C13.8616 12.2083 13.2083 12.8631 13.2083 13.6667V25.3333C13.2083 26.1369 13.8616 26.7917 14.6666 26.7917H26.3333C27.1383 26.7917 27.7916 26.1369 27.7916 25.3333V20.9583C27.7916 20.1533 28.4435 19.5 29.25 19.5C30.0564 19.5 30.7083 20.1533 30.7083 20.9583V25.3333C30.7083 27.7454 28.7454 29.7083 26.3333 29.7083Z" fill="white"/>
<path d="M22.2004 23.6315C21.69 23.6315 21.1956 23.4288 20.8281 23.0613L16.9373 19.1719C16.1789 18.4121 16.1789 17.1813 16.9373 16.4229C17.6956 15.6646 18.9279 15.6631 19.6892 16.4229L21.7542 18.4894L26.8219 10.5342C27.3425 9.59501 28.5281 9.25521 29.4673 9.7773C30.4064 10.2994 30.7433 11.4835 30.2227 12.4213L23.9023 22.6296C23.6062 23.1633 23.0769 23.5265 22.4731 23.611C22.3798 23.6256 22.2923 23.6315 22.2004 23.6315Z" fill="white"/>
</svg>
