<svg width="128" height="53" viewBox="0 0 128 53" fill="none" xmlns="http://www.w3.org/2000/svg">
<path d="M127 1H1V52H127V1Z" stroke="#FECBCA" stroke-width="2"/>
<path fill-rule="evenodd" clip-rule="evenodd" d="M13.1939 18.62C12.6739 18.4067 12.2006 18.0933 11.7739 17.68L10.5739 18.46C10.9739 18.9 11.4339 19.2467 11.9539 19.5C12.4739 19.7533 13.0206 19.9533 13.5939 20.1C14.1672 20.2333 14.7539 20.32 15.3539 20.36C15.9539 20.4 16.5272 20.42 17.0739 20.42H18.5739C18.8672 20.42 19.2406 20.4 19.6939 20.36C20.1472 20.32 20.6206 20.2533 21.1139 20.16C21.6206 20.0667 22.1206 19.9467 22.6139 19.8C23.1206 19.64 23.5739 19.4467 23.9739 19.22C24.3739 18.98 24.6939 18.7 24.9339 18.38C25.1872 18.06 25.3139 17.6933 25.3139 17.28C25.3139 16.6933 25.1339 16.2133 24.7739 15.84C24.4139 15.4533 23.9406 15.1467 23.3539 14.92C22.7672 14.68 22.0939 14.5 21.3339 14.38C20.5872 14.2467 19.8206 14.1333 19.0339 14.04C18.2472 13.9467 17.4739 13.86 16.7139 13.78C15.9672 13.6867 15.3006 13.5667 14.7139 13.42C14.1272 13.26 13.6539 13.0533 13.2939 12.8C12.9339 12.5333 12.7539 12.1867 12.7539 11.76C12.7539 11.32 12.9406 10.9733 13.3139 10.72C13.6872 10.4533 14.1272 10.26 14.6339 10.14C15.1539 10.0067 15.6739 9.92 16.1939 9.88C16.7272 9.84 17.1472 9.82 17.4539 9.82C17.8939 9.82 18.3472 9.83333 18.8139 9.86C19.2806 9.87333 19.7406 9.92 20.1939 10C20.6472 10.08 21.0872 10.2 21.5139 10.36C21.9406 10.5067 22.3472 10.7133 22.7339 10.98L23.7939 10.22C23.3806 9.9 22.9272 9.64 22.4339 9.44C21.9406 9.22667 21.4339 9.06 20.9139 8.94C20.3939 8.82 19.8606 8.74 19.3139 8.7C18.7806 8.64667 18.2539 8.62 17.7339 8.62C17.4139 8.62 17.0206 8.63333 16.5539 8.66C16.1006 8.68667 15.6206 8.74 15.1139 8.82C14.6072 8.9 14.1072 9.01333 13.6139 9.16C13.1206 9.29333 12.6739 9.48 12.2739 9.72C11.8872 9.94667 11.5672 10.2267 11.3139 10.56C11.0739 10.8933 10.9539 11.2933 10.9539 11.76C10.9539 12.1867 11.0806 12.5667 11.3339 12.9C11.5872 13.22 11.9139 13.5 12.3139 13.74C12.7139 13.98 13.1672 14.1867 13.6739 14.36C14.1806 14.52 14.6872 14.6533 15.1939 14.76C15.7006 14.8667 16.1872 14.9467 16.6539 15C17.1206 15.0533 17.5139 15.0867 17.8339 15.1H17.8139C18.0406 15.1 18.3339 15.1133 18.6939 15.14C19.0672 15.1667 19.4672 15.2133 19.8939 15.28C20.3206 15.3333 20.7472 15.42 21.1739 15.54C21.6139 15.6467 22.0072 15.78 22.3539 15.94C22.7006 16.1 22.9806 16.2933 23.1939 16.52C23.4206 16.7333 23.5339 16.9867 23.5339 17.28C23.5339 17.5733 23.4272 17.8267 23.2139 18.04C23.0139 18.24 22.7472 18.4133 22.4139 18.56C22.0939 18.7067 21.7339 18.8267 21.3339 18.92C20.9339 19 20.5339 19.0667 20.1339 19.12C19.7472 19.16 19.3806 19.1867 19.0339 19.2C18.7006 19.2133 18.4339 19.22 18.2339 19.22H16.5339C15.9472 19.2067 15.3739 19.16 14.8139 19.08C14.2539 18.9867 13.7139 18.8333 13.1939 18.62ZM10.8139 20.06C10.0806 19.58 9.44724 18.9067 8.91391 18.04L11.9739 16.14C12.3072 16.5667 12.6806 16.9067 13.0939 17.16C13.5072 17.4133 13.9472 17.6133 14.4139 17.76C14.8806 17.8933 15.3606 17.9867 15.8539 18.04C16.3472 18.08 16.8472 18.1 17.3539 18.1H17.9739C18.2806 18.1 18.6206 18.0933 18.9939 18.08C19.3806 18.0667 19.7739 18.0467 20.1739 18.02C20.5739 17.9933 20.9406 17.9533 21.2739 17.9C21.6072 17.8333 21.8806 17.7533 22.0939 17.66C22.3072 17.5533 22.4139 17.4267 22.4139 17.28C22.4139 17.1067 22.2472 16.96 21.9139 16.84C21.5806 16.72 21.2006 16.6267 20.7739 16.56C20.3472 16.48 19.9339 16.42 19.5339 16.38C19.1472 16.34 18.8872 16.3133 18.7539 16.3C18.2872 16.2467 17.7406 16.1867 17.1139 16.12C16.5006 16.04 15.8606 15.94 15.1939 15.82C14.5406 15.6867 13.8939 15.52 13.2539 15.32C12.6139 15.12 12.0406 14.86 11.5339 14.54C11.0272 14.22 10.6206 13.8333 10.3139 13.38C10.0072 12.9267 9.85391 12.3867 9.85391 11.76C9.85391 11.2133 9.97391 10.7333 10.2139 10.32C10.4539 9.89333 10.7739 9.52 11.1739 9.2C11.5739 8.88 12.0272 8.61333 12.5339 8.4C13.0539 8.18667 13.5806 8.01333 14.1139 7.88C14.6606 7.74667 15.1939 7.65333 15.7139 7.6C16.2472 7.53333 16.7206 7.5 17.1339 7.5C17.9206 7.5 18.7006 7.52667 19.4739 7.58C20.2606 7.63333 21.0139 7.76 21.7339 7.96C22.4539 8.16 23.1339 8.46 23.7739 8.86C24.4139 9.24667 24.9872 9.78667 25.4939 10.48L22.5739 12.44C22.2539 12.12 21.9006 11.86 21.5139 11.66C21.1406 11.46 20.7406 11.3067 20.3139 11.2C19.9006 11.0933 19.4739 11.0267 19.0339 11C18.5939 10.96 18.1606 10.94 17.7339 10.94C17.5872 10.94 17.3006 10.9467 16.8739 10.96C16.4606 10.96 16.0272 10.9867 15.5739 11.04C15.1339 11.0933 14.7406 11.1733 14.3939 11.28C14.0472 11.3867 13.8739 11.5467 13.8739 11.76C13.8739 11.9467 14.0606 12.1067 14.4339 12.24C14.8072 12.3733 15.2339 12.4867 15.7139 12.58C16.1939 12.66 16.6606 12.7267 17.1139 12.78C17.5672 12.82 17.8739 12.8467 18.0339 12.86C18.5006 12.9 19.0339 12.9467 19.6339 13C20.2339 13.0533 20.8472 13.1333 21.4739 13.24C22.1006 13.3467 22.7072 13.5 23.2939 13.7C23.8939 13.8867 24.4206 14.14 24.8739 14.46C25.3406 14.7667 25.7139 15.1533 25.9939 15.62C26.2872 16.0733 26.4339 16.6267 26.4339 17.28C26.4339 17.8267 26.2939 18.3133 26.0139 18.74C25.7472 19.1533 25.3872 19.52 24.9339 19.84C24.4939 20.1467 23.9872 20.4133 23.4139 20.64C22.8539 20.8533 22.2806 21.0267 21.6939 21.16C21.1072 21.2933 20.5406 21.3933 19.9939 21.46C19.4472 21.5133 18.9739 21.54 18.5739 21.54C17.6672 21.54 16.7539 21.52 15.8339 21.48C14.9272 21.44 14.0472 21.3133 13.1939 21.1C12.3406 20.8733 11.5472 20.5267 10.8139 20.06ZM10.8539 14.66L11.8139 15.64L8.19391 17.88C8.34057 18.12 8.49391 18.3667 8.65391 18.62C8.82724 18.8733 9.03391 19.1533 9.27391 19.46C9.52724 19.7533 9.82724 20.0867 10.1739 20.46C10.5339 20.82 10.9739 21.24 11.4939 21.72C12.1072 22.3467 12.7806 22.8133 13.5139 23.12C14.2472 23.4267 15.0006 23.6467 15.7739 23.78C16.5606 23.9133 17.3606 23.98 18.1739 23.98H20.5739C21.0006 23.98 21.5006 23.9467 22.0739 23.88C22.6606 23.8133 23.2606 23.7067 23.8739 23.56C24.4872 23.4133 25.0939 23.22 25.6939 22.98C26.2939 22.74 26.8272 22.4467 27.2939 22.1C27.7606 21.7533 28.1406 21.3467 28.4339 20.88C28.7272 20.4133 28.8739 19.88 28.8739 19.28C28.8739 18.7067 28.7806 18.16 28.5939 17.64C28.4072 17.12 28.1539 16.6933 27.8339 16.36C27.3939 15.9067 27.0406 15.56 26.7739 15.32C26.5206 15.0667 26.3139 14.8733 26.1539 14.74C25.9939 14.6067 25.8672 14.52 25.7739 14.48C25.6939 14.4267 25.6206 14.3667 25.5539 14.3L28.1139 12.58C28.0472 12.4867 27.9806 12.3867 27.9139 12.28C27.8472 12.16 27.7406 12.0067 27.5939 11.82C27.4606 11.6333 27.2739 11.4067 27.0339 11.14C26.7939 10.86 26.4672 10.5133 26.0539 10.1C25.4406 9.35333 24.7806 8.77333 24.0739 8.36C23.3672 7.94667 22.6272 7.64 21.8539 7.44C21.0939 7.24 20.3139 7.12 19.5139 7.08C18.7139 7.02667 17.9206 7 17.1339 7C16.6806 7 16.1739 7.03333 15.6139 7.1C15.0539 7.16667 14.4872 7.27333 13.9139 7.42C13.3406 7.56667 12.7806 7.76667 12.2339 8.02C11.6872 8.26 11.2006 8.55333 10.7739 8.9C10.3472 9.24667 10.0006 9.66 9.73391 10.14C9.48057 10.6067 9.35391 11.1467 9.35391 11.76C9.35391 12.4 9.48724 12.96 9.75391 13.44C10.0206 13.9067 10.3872 14.3133 10.8539 14.66ZM33.865 8.62H32.825V20.42H34.065V11.16L40.285 20.42H41.265L47.485 11.14V20.42H48.725V8.62H47.685C46.5117 10.3267 45.345 12.0267 44.185 13.72C43.0383 15.4133 41.8983 17.1267 40.765 18.86L33.865 8.62ZM39.665 21.54L35.165 14.8V21.54H31.725V7.5H34.465L40.745 16.86L47.065 7.5H49.825V21.54H46.385V14.78L41.865 21.54H39.665ZM41.025 15.56L36.685 9.06L34.705 7H31.225V22.04L33.285 23.98H37.605V19.32L39.425 22.04L41.445 23.98H44.085L45.885 21.3V22.04L47.945 23.98H52.265V9.06L50.325 7H46.825L41.025 15.56ZM65.6048 10.1L69.8248 16.08H61.2848L65.6048 10.1ZM63.4248 15H67.6648L65.5648 12L63.4248 15ZM70.6448 17.32L72.8048 20.42H74.3048L66.0448 8.62H65.0848C63.6848 10.6067 62.2782 12.5733 60.8648 14.52C59.4648 16.4667 58.0582 18.4333 56.6448 20.42H58.2448C58.6182 19.9133 58.9782 19.4 59.3248 18.88C59.6848 18.3467 60.0515 17.8267 60.4248 17.32H70.6448ZM54.5448 21.54L64.5448 7.5H66.6448L76.4448 21.54H72.2048L70.0248 18.44H60.9848L58.7848 21.54H54.5448ZM79.2848 23.98L68.8848 9.06L66.9048 7H64.2848L53.5648 22.04L55.6848 23.98H61.0248C61.1848 23.7533 61.3582 23.5067 61.5448 23.24C61.7315 22.9867 61.9182 22.72 62.1048 22.44C62.3048 22.1733 62.4982 21.9067 62.6848 21.64C62.8848 21.3733 63.0648 21.12 63.2248 20.88H71.1248L71.9448 22.04L73.9648 23.98H79.2848ZM91.6978 11C91.5245 10.9733 91.3578 10.96 91.1978 10.96H83.7778V12.82H91.1778C91.3111 12.82 91.4645 12.8067 91.6378 12.78C91.8245 12.7533 91.9911 12.7067 92.1378 12.64C92.2978 12.5733 92.4311 12.48 92.5378 12.36C92.6445 12.24 92.6978 12.0867 92.6978 11.9C92.6978 11.7 92.6445 11.54 92.5378 11.42C92.4445 11.3 92.3245 11.2067 92.1778 11.14C92.0312 11.0733 91.8711 11.0267 91.6978 11ZM92.1178 13.82C91.8111 13.8867 91.4978 13.92 91.1778 13.92H82.6778V9.84H91.1978C91.5312 9.84 91.8512 9.88 92.1578 9.96C92.4778 10.0267 92.7578 10.14 92.9978 10.3C93.2511 10.46 93.4511 10.6733 93.5978 10.94C93.7445 11.2067 93.8178 11.5267 93.8178 11.9C93.8178 12.26 93.7378 12.5733 93.5778 12.84C93.4311 13.0933 93.2311 13.3 92.9778 13.46C92.7245 13.62 92.4378 13.74 92.1178 13.82ZM92.3778 15.06C92.6045 15.0067 92.8111 14.9267 92.9978 14.82H93.0178C93.6978 14.5533 94.2045 14.1867 94.5378 13.72C94.8711 13.24 95.0378 12.6333 95.0378 11.9C95.0378 11.3133 94.9378 10.8133 94.7378 10.4C94.5511 9.98667 94.2845 9.64667 93.9378 9.38C93.6045 9.11333 93.1978 8.92 92.7178 8.8C92.2511 8.68 91.7445 8.62 91.1978 8.62H81.4378V20.42H82.6778V15.12H90.0178L94.6378 20.42H96.2578C95.4978 19.54 94.7378 18.6733 93.9778 17.82C93.2311 16.9667 92.4845 16.1 91.7378 15.22C91.9378 15.1667 92.1511 15.1133 92.3778 15.06ZM95.7978 9.94C96.0378 10.4867 96.1578 11.14 96.1578 11.9C96.1578 13.74 95.3245 15.0267 93.6578 15.76L98.6978 21.54H94.0978L89.4978 16.22H83.7778V21.54H80.3578V7.5H91.1978C91.9311 7.5 92.5978 7.58667 93.1978 7.76C93.8111 7.93333 94.3378 8.2 94.7778 8.56C95.2178 8.92 95.5578 9.38 95.7978 9.94ZM79.8578 7V22.04L81.9178 23.98H86.2178V18.66H90.9578L93.8778 22.04L95.8978 23.98H101.658C101.258 23.5267 100.831 23.04 100.378 22.52C99.9378 22.0133 99.4911 21.5 99.0378 20.98C98.5845 20.4467 98.1311 19.92 97.6778 19.4C97.2245 18.88 96.7911 18.38 96.3778 17.9C97.0978 17.4733 97.6445 16.92 98.0178 16.24C98.4045 15.56 98.5978 14.78 98.5978 13.9C98.5978 13.14 98.4845 12.44 98.2578 11.8C98.0445 11.1467 97.7445 10.6267 97.3578 10.24C96.7578 9.53333 96.1911 8.96667 95.6578 8.54C95.1378 8.11333 94.6311 7.78667 94.1378 7.56C93.6578 7.33333 93.1778 7.18667 92.6978 7.12C92.2178 7.04 91.7178 7 91.1978 7H79.8578ZM101.123 9.84H107.823V20.42H109.023V9.84H115.743V8.62H101.123V9.84ZM116.843 10.96H110.123V21.54H106.723V10.96H100.023V7.5H116.843V10.96ZM99.5234 7V11.46L101.583 13.4H106.223V22.04L108.283 23.98H112.563V13.4H119.283V9.06L117.343 7H99.5234ZM16.3 30.84V41.42H17.5V30.84H24.22V29.62H9.6V30.84H16.3ZM18.6 31.96V42.54H15.2V31.96H8.5V28.5H25.32V31.96H18.6ZM8 28V32.46L10.06 34.4H14.7V43.04L16.76 44.98H21.04V34.4H27.76V30.06L25.82 28H8ZM41.5264 39.96C40.8597 40.12 40.1397 40.2 39.3664 40.2H37.1664C36.3797 40.2 35.6464 40.12 34.9664 39.96C34.2997 39.8 33.7197 39.5333 33.2264 39.16C32.7331 38.7867 32.3397 38.3067 32.0464 37.72C31.7664 37.12 31.6264 36.3867 31.6264 35.52C31.6264 34.6667 31.7664 33.94 32.0464 33.34C32.3397 32.74 32.7331 32.26 33.2264 31.9C33.7197 31.5267 34.2997 31.26 34.9664 31.1C35.6464 30.9267 36.3797 30.84 37.1664 30.84H39.3664C40.1397 30.84 40.8597 30.9267 41.5264 31.1C42.2064 31.26 42.7931 31.5267 43.2864 31.9C43.7797 32.26 44.1664 32.74 44.4464 33.34C44.7397 33.94 44.8864 34.6667 44.8864 35.52C44.8864 36.3867 44.7464 37.12 44.4664 37.72C44.1864 38.3067 43.7931 38.7867 43.2864 39.16C42.7931 39.52 42.2064 39.7867 41.5264 39.96ZM35.4664 38.9C35.9997 39.02 36.5664 39.08 37.1664 39.08H39.3664C39.9664 39.08 40.5331 39.02 41.0664 38.9C41.5997 38.78 42.0664 38.58 42.4664 38.3C42.8664 38.02 43.1797 37.6533 43.4064 37.2C43.6464 36.7467 43.7664 36.1867 43.7664 35.52C43.7664 34.8533 43.6464 34.2933 43.4064 33.84C43.1664 33.3867 42.8464 33.02 42.4464 32.74C42.0464 32.46 41.5797 32.26 41.0464 32.14C40.5131 32.02 39.9531 31.96 39.3664 31.96H37.1664C36.5797 31.96 36.0197 32.02 35.4864 32.14C34.9531 32.26 34.4797 32.46 34.0664 32.74C33.6664 33.02 33.3464 33.3867 33.1064 33.84C32.8664 34.2933 32.7464 34.8533 32.7464 35.52C32.7464 36.2 32.8664 36.7667 33.1064 37.22C33.3464 37.6733 33.6664 38.04 34.0664 38.32C34.4664 38.5867 34.9331 38.78 35.4664 38.9ZM30.8664 32.78C30.5331 33.5267 30.3664 34.44 30.3664 35.52C30.3664 36.6 30.5331 37.5133 30.8664 38.26C31.2131 39.0067 31.6864 39.62 32.2864 40.1C32.8997 40.5667 33.6197 40.9067 34.4464 41.12C35.2864 41.32 36.1931 41.42 37.1664 41.42H39.3664C40.3397 41.42 41.2397 41.3133 42.0664 41.1C42.8931 40.8867 43.6064 40.5467 44.2064 40.08C44.8197 39.6133 45.2931 39.0067 45.6264 38.26C45.9731 37.5133 46.1464 36.6 46.1464 35.52C46.1464 34.44 45.9731 33.5267 45.6264 32.78C45.2931 32.0333 44.8197 31.4267 44.2064 30.96C43.6064 30.4933 42.8931 30.1533 42.0664 29.94C41.2397 29.7267 40.3397 29.62 39.3664 29.62H37.1664C36.1931 29.62 35.2864 29.7267 34.4464 29.94C33.6197 30.14 32.8997 30.48 32.2864 30.96C31.6864 31.4267 31.2131 32.0333 30.8664 32.78ZM29.8264 38.76C29.4397 37.8667 29.2464 36.7867 29.2464 35.52C29.2464 34.2533 29.4397 33.18 29.8264 32.3C30.2264 31.4067 30.7731 30.68 31.4664 30.12C32.1731 29.56 33.0064 29.1533 33.9664 28.9C34.9397 28.6333 36.0064 28.5 37.1664 28.5H39.3664C40.5264 28.5 41.5864 28.6333 42.5464 28.9C43.5064 29.1533 44.3331 29.56 45.0264 30.12C45.7331 30.68 46.2797 31.4067 46.6664 32.3C47.0531 33.18 47.2464 34.2533 47.2464 35.52C47.2464 36.7867 47.0531 37.8667 46.6664 38.76C46.2797 39.64 45.7331 40.36 45.0264 40.92C44.3331 41.48 43.5064 41.8933 42.5464 42.16C41.5864 42.4133 40.5264 42.54 39.3664 42.54H37.1664C36.0064 42.54 34.9397 42.4133 33.9664 42.16C33.0064 41.8933 32.1731 41.48 31.4664 40.92C30.7731 40.36 30.2264 39.64 29.8264 38.76ZM29.3664 32.06C28.9531 33.0067 28.7464 34.16 28.7464 35.52C28.7464 36.2133 28.7997 36.8667 28.9064 37.48C29.0131 38.0933 29.1997 38.6933 29.4664 39.28C29.7464 39.8667 30.1264 40.46 30.6064 41.06C31.0864 41.6467 31.7064 42.2733 32.4664 42.94C33.2264 43.6867 34.1931 44.2133 35.3664 44.52C36.5397 44.8267 37.8064 44.98 39.1664 44.98H41.3664C42.5797 44.98 43.6931 44.84 44.7064 44.56C45.7331 44.2933 46.6131 43.86 47.3464 43.26C48.0931 42.6733 48.6664 41.9067 49.0664 40.96C49.4797 40.0133 49.6864 38.8667 49.6864 37.52C49.6864 36.3067 49.4931 35.2067 49.1064 34.22C48.7197 33.2333 48.2264 32.44 47.6264 31.84C46.9197 31 46.2331 30.3333 45.5664 29.84C44.9131 29.3333 44.2531 28.9467 43.5864 28.68C42.9197 28.4 42.2397 28.22 41.5464 28.14C40.8664 28.0467 40.1397 28 39.3664 28H37.1664C35.9397 28 34.8064 28.14 33.7664 28.42C32.7397 28.6867 31.8531 29.12 31.1064 29.72C30.3597 30.32 29.7797 31.1 29.3664 32.06ZM40.8464 38.44C40.3797 38.5333 39.8864 38.58 39.3664 38.58H37.1664C36.8197 38.58 36.4864 38.56 36.1664 38.52C35.8464 38.48 35.5464 38.4133 35.2664 38.32C35.2131 38.1067 35.1864 37.84 35.1864 37.52C35.1864 36.9333 35.2931 36.44 35.5064 36.04C35.7197 35.64 36.0064 35.32 36.3664 35.08C36.7397 34.84 37.1664 34.6667 37.6464 34.56C38.1264 34.4533 38.6331 34.4 39.1664 34.4H41.3664C42.0064 34.4 42.5997 34.48 43.1464 34.64C43.2264 34.9067 43.2664 35.2 43.2664 35.52C43.2664 36.0933 43.1597 36.58 42.9464 36.98C42.7464 37.3667 42.4664 37.68 42.1064 37.92C41.7464 38.16 41.3264 38.3333 40.8464 38.44ZM88.1092 39.96C87.4292 40.12 86.7026 40.2 85.9292 40.2H78.8092V30.84H85.9292C86.7026 30.84 87.4292 30.92 88.1092 31.08C88.7892 31.24 89.3759 31.5067 89.8692 31.88C90.3759 32.2533 90.7692 32.74 91.0492 33.34C91.3426 33.9267 91.4892 34.6533 91.4892 35.52C91.4892 36.3867 91.3426 37.12 91.0492 37.72C90.7692 38.3067 90.3759 38.7867 89.8692 39.16C89.3759 39.5333 88.7892 39.8 88.1092 39.96ZM87.6292 32.14C87.0959 32.02 86.5292 31.96 85.9292 31.96H79.8892V39.08H85.9292C86.5292 39.08 87.0959 39.0267 87.6292 38.92C88.1759 38.8 88.6559 38.6067 89.0692 38.34C89.4826 38.06 89.8092 37.6933 90.0492 37.24C90.2892 36.7733 90.4092 36.2 90.4092 35.52C90.4092 34.84 90.2826 34.2733 90.0292 33.82C89.7892 33.3667 89.4626 33 89.0492 32.72C88.6492 32.44 88.1759 32.2467 87.6292 32.14ZM88.6292 29.94C87.8026 29.7267 86.9026 29.62 85.9292 29.62H77.5892V41.42H85.9292C86.9026 41.42 87.8026 41.32 88.6292 41.12C89.4559 40.9067 90.1759 40.5667 90.7892 40.1C91.4025 39.62 91.8826 39.0067 92.2292 38.26C92.5759 37.5133 92.7492 36.6 92.7492 35.52C92.7492 34.44 92.5759 33.5267 92.2292 32.78C91.8826 32.0333 91.4025 31.4267 90.7892 30.96C90.1759 30.48 89.4559 30.14 88.6292 29.94ZM89.1092 42.16C88.1492 42.4133 87.0892 42.54 85.9292 42.54H76.4892V28.5H85.9292C87.0892 28.5 88.1492 28.6267 89.1092 28.88C90.0826 29.1333 90.9159 29.54 91.6092 30.1C92.3159 30.66 92.8626 31.3867 93.2492 32.28C93.6492 33.1733 93.8492 34.2533 93.8492 35.52C93.8492 36.7867 93.6492 37.8667 93.2492 38.76C92.8626 39.6533 92.3159 40.38 91.6092 40.94C90.9159 41.5 90.0826 41.9067 89.1092 42.16ZM85.9292 28H75.9892V43.04L78.0492 44.98H87.9292C89.1426 44.98 90.2626 44.84 91.2892 44.56C92.3159 44.2933 93.1959 43.86 93.9292 43.26C94.6759 42.6733 95.2559 41.9067 95.6692 40.96C96.0826 40.0133 96.2892 38.8667 96.2892 37.52C96.2892 36.32 96.1226 35.2067 95.7892 34.18C95.4559 33.14 94.9892 32.32 94.3892 31.72C93.6692 30.88 92.9626 30.2133 92.2692 29.72C91.5892 29.2267 90.9025 28.8533 90.2092 28.6C89.5292 28.3467 88.8359 28.1867 88.1292 28.12C87.4226 28.04 86.6892 28 85.9292 28ZM85.9292 38.58H82.3292V34.4H87.9292C88.5959 34.4 89.2225 34.48 89.8092 34.64C89.8759 34.9333 89.9092 35.2267 89.9092 35.52C89.9092 36.1067 89.8026 36.6 89.5892 37C89.3759 37.3867 89.0826 37.7 88.7092 37.94C88.3492 38.1667 87.9292 38.3333 87.4492 38.44C86.9692 38.5333 86.4626 38.58 85.9292 38.58ZM111.136 39.96C110.469 40.12 109.749 40.2 108.976 40.2H106.776C105.989 40.2 105.256 40.12 104.576 39.96C103.909 39.8 103.329 39.5333 102.836 39.16C102.342 38.7867 101.949 38.3067 101.656 37.72C101.376 37.12 101.236 36.3867 101.236 35.52C101.236 34.6667 101.376 33.94 101.656 33.34C101.949 32.74 102.342 32.26 102.836 31.9C103.329 31.5267 103.909 31.26 104.576 31.1C105.256 30.9267 105.989 30.84 106.776 30.84H108.976C109.749 30.84 110.469 30.9267 111.136 31.1C111.816 31.26 112.402 31.5267 112.896 31.9C113.389 32.26 113.776 32.74 114.056 33.34C114.349 33.94 114.496 34.6667 114.496 35.52C114.496 36.3867 114.356 37.12 114.076 37.72C113.796 38.3067 113.402 38.7867 112.896 39.16C112.402 39.52 111.816 39.7867 111.136 39.96ZM105.076 38.9C105.609 39.02 106.176 39.08 106.776 39.08H108.976C109.576 39.08 110.142 39.02 110.676 38.9C111.209 38.78 111.676 38.58 112.076 38.3C112.476 38.02 112.789 37.6533 113.016 37.2C113.256 36.7467 113.376 36.1867 113.376 35.52C113.376 34.8533 113.256 34.2933 113.016 33.84C112.776 33.3867 112.456 33.02 112.056 32.74C111.656 32.46 111.189 32.26 110.656 32.14C110.122 32.02 109.562 31.96 108.976 31.96H106.776C106.189 31.96 105.629 32.02 105.096 32.14C104.562 32.26 104.089 32.46 103.676 32.74C103.276 33.02 102.956 33.3867 102.716 33.84C102.476 34.2933 102.356 34.8533 102.356 35.52C102.356 36.2 102.476 36.7667 102.716 37.22C102.956 37.6733 103.276 38.04 103.676 38.32C104.076 38.5867 104.542 38.78 105.076 38.9ZM100.476 32.78C100.142 33.5267 99.9758 34.44 99.9758 35.52C99.9758 36.6 100.142 37.5133 100.476 38.26C100.822 39.0067 101.296 39.62 101.896 40.1C102.509 40.5667 103.229 40.9067 104.056 41.12C104.896 41.32 105.802 41.42 106.776 41.42H108.976C109.949 41.42 110.849 41.3133 111.676 41.1C112.502 40.8867 113.216 40.5467 113.816 40.08C114.429 39.6133 114.902 39.0067 115.236 38.26C115.582 37.5133 115.756 36.6 115.756 35.52C115.756 34.44 115.582 33.5267 115.236 32.78C114.902 32.0333 114.429 31.4267 113.816 30.96C113.216 30.4933 112.502 30.1533 111.676 29.94C110.849 29.7267 109.949 29.62 108.976 29.62H106.776C105.802 29.62 104.896 29.7267 104.056 29.94C103.229 30.14 102.509 30.48 101.896 30.96C101.296 31.4267 100.822 32.0333 100.476 32.78ZM99.4358 38.76C99.0491 37.8667 98.8558 36.7867 98.8558 35.52C98.8558 34.2533 99.0491 33.18 99.4358 32.3C99.8358 31.4067 100.382 30.68 101.076 30.12C101.782 29.56 102.616 29.1533 103.576 28.9C104.549 28.6333 105.616 28.5 106.776 28.5H108.976C110.136 28.5 111.196 28.6333 112.156 28.9C113.116 29.1533 113.942 29.56 114.636 30.12C115.342 30.68 115.889 31.4067 116.276 32.3C116.662 33.18 116.856 34.2533 116.856 35.52C116.856 36.7867 116.662 37.8667 116.276 38.76C115.889 39.64 115.342 40.36 114.636 40.92C113.942 41.48 113.116 41.8933 112.156 42.16C111.196 42.4133 110.136 42.54 108.976 42.54H106.776C105.616 42.54 104.549 42.4133 103.576 42.16C102.616 41.8933 101.782 41.48 101.076 40.92C100.382 40.36 99.8358 39.64 99.4358 38.76ZM98.9758 32.06C98.5624 33.0067 98.3558 34.16 98.3558 35.52C98.3558 36.2133 98.4091 36.8667 98.5158 37.48C98.6225 38.0933 98.8091 38.6933 99.0758 39.28C99.3558 39.8667 99.7358 40.46 100.216 41.06C100.696 41.6467 101.316 42.2733 102.076 42.94C102.836 43.6867 103.802 44.2133 104.976 44.52C106.149 44.8267 107.416 44.98 108.776 44.98H110.976C112.189 44.98 113.302 44.84 114.316 44.56C115.342 44.2933 116.222 43.86 116.956 43.26C117.702 42.6733 118.276 41.9067 118.676 40.96C119.089 40.0133 119.296 38.8667 119.296 37.52C119.296 36.3067 119.102 35.2067 118.716 34.22C118.329 33.2333 117.836 32.44 117.236 31.84C116.529 31 115.842 30.3333 115.176 29.84C114.522 29.3333 113.862 28.9467 113.196 28.68C112.529 28.4 111.849 28.22 111.156 28.14C110.476 28.0467 109.749 28 108.976 28H106.776C105.549 28 104.416 28.14 103.376 28.42C102.349 28.6867 101.462 29.12 100.716 29.72C99.9691 30.32 99.3891 31.1 98.9758 32.06ZM110.456 38.44C109.989 38.5333 109.496 38.58 108.976 38.58H106.776C106.429 38.58 106.096 38.56 105.776 38.52C105.456 38.48 105.156 38.4133 104.876 38.32C104.822 38.1067 104.796 37.84 104.796 37.52C104.796 36.9333 104.902 36.44 105.116 36.04C105.329 35.64 105.616 35.32 105.976 35.08C106.349 34.84 106.776 34.6667 107.256 34.56C107.736 34.4533 108.242 34.4 108.776 34.4H110.976C111.616 34.4 112.209 34.48 112.756 34.64C112.836 34.9067 112.876 35.2 112.876 35.52C112.876 36.0933 112.769 36.58 112.556 36.98C112.356 37.3667 112.076 37.68 111.716 37.92C111.356 38.16 110.936 38.3333 110.456 38.44ZM67.2832 25.52C68.6176 25.52 69.9713 26.1056 70.9995 27.1325C72.9838 29.1138 73.1795 32.0238 71.4445 33.76L61.9051 43.3744C61.6076 43.6725 61.242 43.89 60.8395 44.0094L55.5407 45.4025C55.5384 45.4028 55.5279 45.4053 55.5107 45.4092C55.4016 45.4341 55.0255 45.52 54.8176 45.52C53.6082 45.52 52.6276 44.54 52.6276 43.3325C52.6276 43.1552 52.6941 42.8352 52.7169 42.7257C52.7215 42.7039 52.7242 42.6905 52.7245 42.6881L54.1926 37.3706C54.3126 36.9688 54.5282 36.6006 54.8257 36.305L61.2813 29.7994L61.2801 29.7981C61.2827 29.7958 61.2849 29.7928 61.287 29.7897C61.2889 29.787 61.2909 29.7842 61.2932 29.7819C61.2982 29.7769 61.3036 29.7729 61.309 29.769C61.3136 29.7656 61.3182 29.7622 61.3226 29.7581L64.3645 26.6931C65.1213 25.9375 66.1576 25.52 67.2832 25.52ZM62.187 38.75C62.4257 39.275 62.5851 39.8281 62.6363 40.3919C62.647 40.51 62.6456 40.6248 62.6442 40.7399C62.6437 40.7794 62.6432 40.819 62.6432 40.8587L67.4732 35.99L67.4645 35.9819C67.4688 35.9769 67.4751 35.9738 67.4801 35.9688C68.272 35.1763 68.4576 33.9825 68.0963 32.8412L62.187 38.75ZM61.047 37.0994C61.3751 37.4269 61.6401 37.7969 61.8732 38.18L67.8388 32.215C67.6376 31.8225 67.3763 31.445 67.0382 31.1081C66.6426 30.7125 66.1945 30.4169 65.727 30.2094L59.7695 36.1669C60.227 36.4181 60.6651 36.7175 61.047 37.0994ZM57.3888 35.4969C57.9963 35.505 58.6026 35.6381 59.1813 35.8713L65.0701 29.9819C64.0132 29.72 62.9401 29.9269 62.2032 30.6456L57.3888 35.4969ZM55.1991 44.1983C55.2121 44.1953 55.2232 44.1926 55.232 44.1906L57.5582 43.5812C57.5895 42.8581 57.3007 42.0744 56.687 41.4619C56.0826 40.8563 55.3138 40.5781 54.5995 40.5975L53.9413 42.9813C53.9399 42.9878 53.9382 42.9956 53.9362 43.0042C53.9189 43.0823 53.8843 43.238 53.8776 43.3325C53.8776 43.8462 54.2945 44.2638 54.8082 44.27C54.9335 44.2613 55.1106 44.2193 55.1991 44.1983ZM57.1288 41.0194C57.8176 41.7069 58.1588 42.5794 58.1738 43.4181L60.4832 42.8112C60.562 42.7881 60.6351 42.7519 60.7076 42.7137C61.7988 41.475 61.5801 39.4 60.1632 37.9837C58.8238 36.6431 56.8957 36.3781 55.642 37.2756C55.532 37.405 55.4426 37.5531 55.3976 37.7031L54.7751 39.9575C55.6251 39.9912 56.4776 40.3675 57.1288 41.0194ZM69.507 33.9381L70.5595 32.8775C71.1407 32.2956 71.4288 31.495 71.3701 30.6219C71.3063 29.6863 70.862 28.7612 70.1163 28.0169C69.322 27.225 68.2888 26.77 67.2832 26.77C66.4926 26.77 65.7695 27.0562 65.2513 27.5731L64.2163 28.6169C65.5532 28.6206 66.9032 29.205 67.9213 30.2238C68.837 31.1381 69.4007 32.3075 69.5107 33.5169C69.5191 33.6092 69.5152 33.698 69.5113 33.7869C69.5091 33.837 69.507 33.8872 69.507 33.9381Z" fill="#FECBCA"/>
</svg>
