<svg width="30" height="30" viewBox="0 0 30 30" fill="none" xmlns="http://www.w3.org/2000/svg">
<path d="M13.125 25C12.0487 25 10.9875 24.8112 9.97123 24.4362L8.32498 23.83L9.43748 22.4712C11.0312 20.5212 11.875 18.1538 11.875 15.625C11.875 13.0962 11.0312 10.7287 9.43623 8.77875L8.32373 7.42L9.96998 6.81375C10.9875 6.43875 12.0487 6.25 13.125 6.25C18.295 6.25 22.5 10.455 22.5 15.625C22.5 20.795 18.295 25 13.125 25ZM12.4887 22.47C12.7 22.49 12.9125 22.5 13.125 22.5C16.915 22.5 20 19.415 20 15.625C20 11.835 16.915 8.75 13.125 8.75C12.9125 8.75 12.7 8.76 12.4887 8.78C13.7275 10.8363 14.375 13.1687 14.375 15.625C14.375 18.0813 13.7275 20.4137 12.4887 22.47Z" fill="#16161A"/>
</svg>
