<svg width="75" height="75" viewBox="0 0 75 75" fill="none" xmlns="http://www.w3.org/2000/svg">
<path d="M40.7531 62.5C38.0625 62.5 35.4094 62.0281 32.8688 61.0906L28.7531 59.575L31.5344 56.1781C35.5188 51.3031 37.6281 45.3844 37.6281 39.0625C37.6281 32.7406 35.5187 26.8219 31.5312 21.9469L28.75 18.55L32.8656 17.0344C35.4094 16.0969 38.0625 15.625 40.7531 15.625C53.6781 15.625 64.1906 26.1375 64.1906 39.0625C64.1906 51.9875 53.6781 62.5 40.7531 62.5ZM39.1625 56.175C39.6906 56.225 40.2219 56.25 40.7531 56.25C50.2281 56.25 57.9406 48.5375 57.9406 39.0625C57.9406 29.5875 50.2281 21.875 40.7531 21.875C40.2219 21.875 39.6906 21.9 39.1625 21.95C42.2594 27.0906 43.8781 32.9219 43.8781 39.0625C43.8781 45.2031 42.2594 51.0344 39.1625 56.175Z" fill="#16161A"/>
</svg>
