<svg width="75" height="75" viewBox="0 0 75 75" fill="none" xmlns="http://www.w3.org/2000/svg">
<path d="M40.625 12.4999L37.5 21.6687L34.375 12.4999C33.7875 10.7718 34.7063 8.89993 36.4344 8.30931C38.1594 7.72181 40.0375 8.64368 40.625 10.3687C40.8688 11.0874 40.85 11.8343 40.625 12.4999Z" fill="#16161A"/>
<path d="M12.5002 34.375L21.6689 37.5L12.5002 40.625C10.7721 41.2125 8.90018 40.2938 8.30955 38.5656C7.72205 36.8406 8.64393 34.9625 10.3689 34.375C11.0877 34.1313 11.8346 34.15 12.5002 34.375Z" fill="#16161A"/>
<path d="M34.3747 62.5001L37.4997 53.3313L40.6247 62.5001C41.2122 64.2282 40.2935 66.1001 38.5653 66.6907C36.8403 67.2782 34.9653 66.3595 34.3747 64.6313C34.131 63.9126 34.1497 63.1657 34.3747 62.5001Z" fill="#16161A"/>
<path d="M62.4997 40.6189L53.3309 37.4939L62.4997 34.3689C64.2278 33.7814 66.0997 34.7001 66.6903 36.4283C67.2778 38.1533 66.3591 40.0283 64.6309 40.6189C63.9122 40.8626 63.1653 40.8439 62.4997 40.6189Z" fill="#16161A"/>
<path d="M22.0318 17.6125L26.3037 26.3031L17.6131 22.0312C15.9756 21.2281 15.3006 19.2468 16.1037 17.6125C16.9099 15.9781 18.8881 15.3031 20.5224 16.1062C21.2037 16.4406 21.7193 16.9812 22.0318 17.6125Z" fill="#16161A"/>
<path d="M17.6127 52.9657L26.3033 48.6938L22.0314 57.3844C21.2283 59.0188 19.2471 59.6938 17.6127 58.8907C15.9783 58.0876 15.3033 56.1063 16.1064 54.4719C16.4408 53.7907 16.9814 53.2782 17.6127 52.9657Z" fill="#16161A"/>
<path d="M52.9661 57.3844L48.6942 48.6938L57.3848 52.9657C59.0192 53.7688 59.6942 55.7501 58.8911 57.3844C58.088 59.0188 56.1067 59.6938 54.4723 58.8907C53.7911 58.5563 53.2786 58.0157 52.9661 57.3844Z" fill="#16161A"/>
<path d="M57.3814 22.025L48.6876 26.3L52.9626 17.6063C53.7657 15.9719 55.747 15.2969 57.3814 16.1C59.0157 16.9032 59.6907 18.8844 58.8845 20.5219C58.5532 21.2 58.0126 21.7125 57.3814 22.025Z" fill="#16161A"/>
<path d="M37.5 51.5625C29.7469 51.5625 23.4375 45.2531 23.4375 37.5C23.4375 29.7469 29.7469 23.4375 37.5 23.4375C45.2531 23.4375 51.5625 29.7469 51.5625 37.5C51.5625 45.2531 45.2531 51.5625 37.5 51.5625ZM37.5 29.6875C33.1906 29.6875 29.6875 33.1906 29.6875 37.5C29.6875 41.8094 33.1906 45.3125 37.5 45.3125C41.8094 45.3125 45.3125 41.8094 45.3125 37.5C45.3125 33.1906 41.8094 29.6875 37.5 29.6875Z" fill="#16161A"/>
</svg>
