<svg width="30" height="30" viewBox="0 0 30 30" fill="none" xmlns="http://www.w3.org/2000/svg">
<path d="M20.8825 12.865C20.3963 12.3788 19.6038 12.3763 19.115 12.8675C18.6275 13.3563 18.6275 14.1463 19.1175 14.635C19.5488 15.0663 19.7863 15.6388 19.7863 16.2488C19.7863 16.8588 19.5488 17.4338 19.1163 17.8663C18.6275 18.3538 18.6275 19.145 19.1163 19.6338C19.36 19.8775 19.68 20 20 20C20.32 20 20.64 19.8775 20.8838 19.6338C21.7888 18.73 22.2863 17.5275 22.2863 16.2488C22.2863 14.97 21.7888 13.7688 20.8825 12.865Z" fill="#FECBCA"/>
<path d="M23.3825 10.365C22.8938 9.87878 22.1038 9.87753 21.615 10.3675C21.1275 10.8563 21.1275 11.6475 21.6175 12.135C22.7163 13.2313 23.3213 14.69 23.3225 16.2438C23.3238 17.8013 22.7175 19.265 21.6163 20.3663C21.1275 20.855 21.1275 21.645 21.6163 22.1338C21.86 22.3775 22.18 22.5 22.5 22.5C22.82 22.5 23.14 22.3775 23.3838 22.1338C24.9575 20.56 25.8238 18.4675 25.8225 16.2425C25.8213 14.0213 24.955 11.9338 23.3825 10.365Z" fill="#FECBCA"/>
<path d="M25.8825 7.86503C25.3938 7.37878 24.6038 7.37753 24.115 7.86753C23.6275 8.35628 23.6275 9.14753 24.1175 9.63503C25.8825 11.3963 26.8563 13.7413 26.8575 16.24C26.86 18.7425 25.8863 21.0963 24.1163 22.8663C23.6275 23.355 23.6275 24.145 24.1163 24.6338C24.36 24.8775 24.68 25 25 25C25.32 25 25.64 24.8775 25.8838 24.6338C28.1263 22.3913 29.36 19.4088 29.3575 16.2375C29.3563 13.0713 28.1213 10.0975 25.8825 7.86503Z" fill="#FECBCA"/>
<path d="M15.1725 7.27997C14.6112 7.27997 14.0412 7.46997 13.4775 7.84622L10.1363 10.0737C9.19625 10.7012 7.38 11.25 6.25 11.25C4.1825 11.25 2.5 12.9325 2.5 15V17.5C2.5 19.5675 4.1825 21.25 6.25 21.25C7.38 21.25 9.19625 21.7987 10.1363 22.4262L13.4763 24.6525C14.04 25.0287 14.61 25.2187 15.1713 25.2187C16.2938 25.22 17.5 24.3687 17.5 22.5V9.99997C17.5 8.13122 16.2937 7.27997 15.1725 7.27997ZM6.25 18.75C5.56 18.75 5 18.19 5 17.5V15C5 14.31 5.56 13.75 6.25 13.75C7.76375 13.75 9.88375 13.1312 11.25 12.3175V20.1837C9.88375 19.3687 7.76375 18.75 6.25 18.75ZM15 22.5C15 22.5575 14.9975 22.6075 14.9925 22.65C14.955 22.63 14.9113 22.605 14.8625 22.5725L12.5 20.9975V11.5025L14.8637 9.92622C14.9112 9.89497 14.955 9.86872 14.9937 9.84872C14.9975 9.89247 15 9.94247 15 9.99997V22.5Z" fill="#FECBCA"/>
</svg>
