<svg width="75" height="75" viewBox="0 0 75 75" fill="none" xmlns="http://www.w3.org/2000/svg">
<path d="M61.5843 16.5406C60.3624 15.3188 58.3874 15.3188 57.1656 16.5406L52.3187 21.3875C51.2406 19.2375 49.2343 18.2 47.3062 18.2C45.903 18.2 44.4781 18.675 43.0687 19.6156L34.7187 25.1813C32.3656 26.7531 27.8249 28.125 24.9999 28.125C19.8312 28.125 15.6249 32.3313 15.6249 37.5V43.75C15.6249 47.6156 17.9812 50.9438 21.3312 52.375L16.5406 57.1656C15.3187 58.3875 15.3187 60.3625 16.5406 61.5844C17.1499 62.1938 17.9499 62.5 18.7499 62.5C19.5499 62.5 20.3499 62.1938 20.9593 61.5844L28.8562 53.6875C31.0343 54.2313 33.2812 55.1094 34.7156 56.0688L43.0656 61.6344C44.4749 62.575 45.8999 63.05 47.3031 63.05C50.1093 63.05 53.1249 60.9219 53.1249 56.25V29.4188L61.5843 20.9594C62.8062 19.7375 62.8062 17.7625 61.5843 16.5406ZM46.5343 24.8156C46.6531 24.7375 46.7624 24.6719 46.8593 24.6219C46.8687 24.7313 46.8749 24.8563 46.8749 25V29.0406L40.6249 35.2906V28.7563L46.5343 24.8156ZM21.8749 37.5C21.8749 35.775 23.2749 34.375 24.9999 34.375C28.7843 34.375 34.0843 32.8281 37.4999 30.7938V38.4156L28.6562 47.2594C27.3656 47.0188 26.1124 46.875 24.9999 46.875C23.2749 46.875 21.8749 45.475 21.8749 43.75V37.5ZM32.1905 48.1438L37.4999 42.8344V50.4563C35.9968 49.5594 34.1406 48.7625 32.1905 48.1438ZM46.8562 56.625C46.7624 56.575 46.6531 56.5125 46.5312 56.4313L40.6249 52.4938V39.7094L46.8749 33.4594V56.25C46.8749 56.3938 46.8687 56.5188 46.8562 56.625Z" fill="#FECBCA"/>
</svg>
