<svg width="30" height="30" viewBox="0 0 30 30" fill="none" xmlns="http://www.w3.org/2000/svg">
<path d="M24.6338 6.61626C24.145 6.12751 23.355 6.12751 22.8663 6.61626L20.9275 8.55501C20.4963 7.69501 19.6938 7.28001 18.9225 7.28001C18.3613 7.28001 17.7913 7.47001 17.2275 7.84626L13.8875 10.0725C12.9463 10.7013 11.13 11.25 10 11.25C7.93251 11.25 6.25001 12.9325 6.25001 15V17.5C6.25001 19.0463 7.19251 20.3775 8.53251 20.95L6.61626 22.8663C6.12751 23.355 6.12751 24.145 6.61626 24.6338C6.86001 24.8775 7.18001 25 7.50001 25C7.82001 25 8.14001 24.8775 8.38376 24.6338L11.5425 21.475C12.4138 21.6925 13.3125 22.0438 13.8863 22.4275L17.2263 24.6538C17.79 25.03 18.36 25.22 18.9213 25.22C20.0438 25.22 21.25 24.3688 21.25 22.5V11.7675L24.6338 8.38376C25.1225 7.89501 25.1225 7.10501 24.6338 6.61626ZM18.6138 9.92626C18.6613 9.89501 18.705 9.86876 18.7438 9.84876C18.7475 9.89251 18.75 9.94251 18.75 10V11.6163L16.25 14.1163V11.5025L18.6138 9.92626ZM8.75001 15C8.75001 14.31 9.31001 13.75 10 13.75C11.5138 13.75 13.6338 13.1313 15 12.3175V15.3663L11.4625 18.9038C10.9463 18.8075 10.445 18.75 10 18.75C9.31001 18.75 8.75001 18.19 8.75001 17.5V15ZM12.8763 19.2575L15 17.1338V20.1825C14.3988 19.8238 13.6563 19.505 12.8763 19.2575ZM18.7425 22.65C18.705 22.63 18.6613 22.605 18.6125 22.5725L16.25 20.9975V15.8838L18.75 13.3838V22.5C18.75 22.5575 18.7475 22.6075 18.7425 22.65Z" fill="#16161A"/>
</svg>
