<svg width="75" height="75" viewBox="0 0 75 75" fill="none" xmlns="http://www.w3.org/2000/svg">
<path d="M52.2063 32.1625C50.9907 30.9469 49.0094 30.9406 47.7876 32.1688C46.5688 33.3906 46.5688 35.3656 47.7938 36.5875C48.8719 37.6656 49.4657 39.0969 49.4657 40.6219C49.4657 42.1469 48.8719 43.5844 47.7907 44.6656C46.5688 45.8844 46.5688 47.8625 47.7907 49.0844C48.4001 49.6938 49.2001 50 50.0001 50C50.8001 50 51.6001 49.6938 52.2094 49.0844C54.4719 46.825 55.7157 43.8188 55.7157 40.6219C55.7157 37.425 54.4719 34.4219 52.2063 32.1625Z" fill="#FECBCA"/>
<path d="M58.4563 25.9125C57.2344 24.6969 55.2594 24.6938 54.0376 25.9188C52.8188 27.1407 52.8188 29.1188 54.0438 30.3375C56.7907 33.0782 58.3032 36.725 58.3063 40.6094C58.3094 44.5032 56.7938 48.1625 54.0407 50.9157C52.8188 52.1375 52.8188 54.1125 54.0407 55.3344C54.65 55.9438 55.4501 56.25 56.2501 56.25C57.0501 56.25 57.8501 55.9438 58.4594 55.3344C62.3938 51.4 64.5594 46.1688 64.5563 40.6063C64.5532 35.0532 62.3876 29.8344 58.4563 25.9125Z" fill="#FECBCA"/>
<path d="M64.7063 19.6625C63.4844 18.4469 61.5094 18.4438 60.2876 19.6688C59.0688 20.8907 59.0688 22.8688 60.2938 24.0875C64.7063 28.4907 67.1407 34.3532 67.1438 40.6C67.1501 46.8563 64.7157 52.7407 60.2907 57.1657C59.0688 58.3875 59.0688 60.3625 60.2907 61.5844C60.9 62.1938 61.7001 62.5 62.5001 62.5C63.3001 62.5 64.1001 62.1938 64.7094 61.5844C70.3157 55.9782 73.4001 48.5219 73.3938 40.5938C73.3907 32.6782 70.3032 25.2438 64.7063 19.6625Z" fill="#FECBCA"/>
<path d="M37.9312 18.2C36.5281 18.2 35.1031 18.675 33.6937 19.6156L25.3406 25.1843C22.9906 26.7531 18.45 28.125 15.625 28.125C10.4562 28.125 6.25 32.3312 6.25 37.5V43.75C6.25 48.9187 10.4562 53.125 15.625 53.125C18.45 53.125 22.9906 54.4968 25.3406 56.0656L33.6906 61.6312C35.1 62.5718 36.525 63.0468 37.9281 63.0468C40.7344 63.05 43.75 60.9218 43.75 56.25V25C43.75 20.3281 40.7344 18.2 37.9312 18.2ZM15.625 46.875C13.9 46.875 12.5 45.475 12.5 43.75V37.5C12.5 35.775 13.9 34.375 15.625 34.375C19.4094 34.375 24.7094 32.8281 28.125 30.7937V50.4593C24.7094 48.4218 19.4094 46.875 15.625 46.875ZM37.5 56.25C37.5 56.3937 37.4938 56.5187 37.4813 56.625C37.3875 56.575 37.2781 56.5125 37.1563 56.4312L31.25 52.4937V28.7562L37.1594 24.8156C37.2781 24.7375 37.3875 24.6718 37.4844 24.6218C37.4937 24.7312 37.5 24.8562 37.5 25V56.25Z" fill="#FECBCA"/>
</svg>
