<svg width="30" height="30" viewBox="0 0 30 30" fill="none" xmlns="http://www.w3.org/2000/svg">
<path d="M16.25 4.99999L15 8.66749L13.75 4.99999C13.515 4.30874 13.8825 3.55999 14.5738 3.32374C15.2638 3.08874 16.015 3.45749 16.25 4.14749C16.3475 4.43499 16.34 4.73374 16.25 4.99999Z" fill="#FECBCA"/>
<path d="M5.00002 13.75L8.66752 15L5.00002 16.25C4.30877 16.485 3.56002 16.1175 3.32377 15.4263C3.08877 14.7363 3.45752 13.985 4.14752 13.75C4.43502 13.6525 4.73377 13.66 5.00002 13.75Z" fill="#FECBCA"/>
<path d="M13.75 25L15 21.3325L16.25 25C16.485 25.6912 16.1175 26.44 15.4263 26.6762C14.7363 26.9112 13.9863 26.5437 13.75 25.8525C13.6525 25.565 13.66 25.2662 13.75 25Z" fill="#FECBCA"/>
<path d="M25 16.2475L21.3325 14.9975L25 13.7475C25.6913 13.5125 26.44 13.88 26.6763 14.5712C26.9113 15.2612 26.5438 16.0112 25.8525 16.2475C25.565 16.345 25.2663 16.3375 25 16.2475Z" fill="#FECBCA"/>
<path d="M8.81253 7.045L10.5213 10.5212L7.04503 8.8125C6.39003 8.49125 6.12003 7.69875 6.44128 7.045C6.76378 6.39125 7.55503 6.12125 8.20878 6.4425C8.48128 6.57625 8.68753 6.7925 8.81253 7.045Z" fill="#FECBCA"/>
<path d="M7.04503 21.1863L10.5213 19.4775L8.81253 22.9538C8.49128 23.6075 7.69878 23.8775 7.04503 23.5563C6.39128 23.235 6.12128 22.4425 6.44253 21.7888C6.57628 21.5163 6.79253 21.3113 7.04503 21.1863Z" fill="#FECBCA"/>
<path d="M21.1863 22.9538L19.4775 19.4775L22.9538 21.1863C23.6075 21.5075 23.8775 22.3 23.5563 22.9538C23.235 23.6075 22.4425 23.8775 21.7888 23.5563C21.5163 23.4225 21.3113 23.2063 21.1863 22.9538Z" fill="#FECBCA"/>
<path d="M22.9525 8.81L19.475 10.52L21.185 7.0425C21.5062 6.38875 22.2987 6.11875 22.9525 6.44C23.6062 6.76125 23.8762 7.55375 23.5537 8.20875C23.4212 8.48 23.205 8.685 22.9525 8.81Z" fill="#FECBCA"/>
<path d="M15 20.625C11.8988 20.625 9.375 18.1012 9.375 15C9.375 11.8988 11.8988 9.375 15 9.375C18.1012 9.375 20.625 11.8988 20.625 15C20.625 18.1012 18.1012 20.625 15 20.625ZM15 11.875C13.2763 11.875 11.875 13.2763 11.875 15C11.875 16.7237 13.2763 18.125 15 18.125C16.7237 18.125 18.125 16.7237 18.125 15C18.125 13.2763 16.7237 11.875 15 11.875Z" fill="#FECBCA"/>
</svg>
